<?xml version="1.0" standalone="no"?><!DOCTYPE svg PUBLIC "-//W3C//DTD SVG 1.1//EN" "http://www.w3.org/Graphics/SVG/1.1/DTD/svg11.dtd"><svg class="icon" width="200px" height="200.00px" viewBox="0 0 1024 1024" version="1.1" xmlns="http://www.w3.org/2000/svg"><path fill="#ffffff" d="M954.181818 468.557576C954.181818 454.593939 952.630303 479.418182 949.527273 465.454545 937.115152 518.206061 853.333333 406.49697 853.333333 591.127273 786.618182 637.672727 685.769697 662.49697 564.751515 668.70303L543.030303 310.30303 612.848485 310.30303 612.848485 248.242424 539.927273 248.242424 535.272727 190.836364C570.957576 178.424242 597.333333 145.842424 597.333333 105.50303 597.333333 55.854545 553.890909 15.515152 504.242424 15.515152 454.593939 15.515152 411.151515 55.854545 411.151515 105.50303 411.151515 145.842424 437.527273 178.424242 473.212121 190.836364L468.557576 248.242424 395.636364 248.242424 395.636364 310.30303 471.660606 310.30303 449.939394 667.151515C333.575758 660.945455 238.933333 634.569697 173.769697 589.575758 173.769697 406.49697 88.436364 515.10303 76.024242 462.351515 72.921212 476.315152 71.369697 451.490909 71.369697 465.454545 71.369697 512 94.642424 560.09697 122.569697 605.090909 181.527273 699.733333 296.339394 777.309091 443.733333 791.272727L507.345455 974.351515 570.957576 792.824242C724.557576 780.412121 844.024242 701.284848 904.533333 605.090909 932.460606 563.2 954.181818 515.10303 954.181818 468.557576L954.181818 468.557576ZM505.793939 110.157576m-17.066667 0a1.1 1.1 0 1 0 34.133333 0 1.1 1.1 0 1 0-34.133333 0Z" /></svg>