<?xml version="1.0" standalone="no"?><!DOCTYPE svg PUBLIC "-//W3C//DTD SVG 1.1//EN" "http://www.w3.org/Graphics/SVG/1.1/DTD/svg11.dtd"><svg class="icon" width="200px" height="200.00px" viewBox="0 0 1024 1024" version="1.1" xmlns="http://www.w3.org/2000/svg"><path fill="#ffffff" d="M512 106.5h2.2c54.7 0.3 107.7 11.3 157.4 32.7 48.1 20.7 91.3 50.1 128.3 87.6 37 37.4 66 81 86.1 129.4 20.8 50.1 31.3 103.2 31 158-0.3 54.6-11.2 107.5-32.4 157.2-20.5 48-49.8 91.2-87 128.2-37.2 37-80.4 66.1-128.5 86.3-49.7 21-102.6 31.6-157 31.6h-2.2c-54.7-0.3-107.7-11.3-157.4-32.7-48.1-20.7-91.3-50.1-128.3-87.6-37-37.4-66-81-86.1-129.4-20.8-50.1-31.3-103.2-31-158 0.3-54.6 11.2-107.5 32.4-157.2 20.5-48 49.8-91.2 87-128.2 37.2-37 80.4-66.1 128.5-86.3 49.7-20.9 102.5-31.6 157-31.6m0-42.5C266 64 65.8 263 64.6 509.6c-1.3 247.4 198 449 445.1 450.3h2.4c246 0 446.2-199 447.4-445.6 1.3-247.4-198-449-445.1-450.3H512zM621.4 702H404.3c-5.3 0-10.3-2.5-13.5-6.7s-4.3-9.7-2.9-14.8l107.7-400c2-7.4 8.7-12.6 16.4-12.6 7.7 0 14.4 5.1 16.4 12.5l109.4 400c1.4 5.1 0.3 10.6-2.9 14.8-3.2 4.3-8.2 6.8-13.5 6.8z m-194.9-34h172.7l-87-318.1L426.5 668zM419.4 645.9H287c-5.7 0-11-2.9-14.2-7.6-3.2-4.8-3.7-10.8-1.5-16l87.3-206.7c2.1-5 6.5-8.7 11.8-10 5.3-1.2 10.9 0.1 15 3.7l81.7 70.9c7.1 6.2 7.9 16.9 1.7 24-6.2 7.1-16.9 7.9-24 1.7l-64-55.5-68.2 161.5h106.7c9.4 0 17 7.6 17 17s-7.5 17-16.9 17zM737 645.9H606.1c-9.4 0-17-7.6-17-17s7.6-17 17-17h109.3L673 436.3 642.7 483c-5.1 7.9-15.7 10.1-23.5 5-7.9-5.1-10.1-15.6-5-23.5l51.9-79.9c3.7-5.7 10.4-8.6 17.1-7.5 6.7 1.1 12.1 6.2 13.7 12.8l56.7 235c1.2 5.1 0.1 10.4-3.2 14.5-3.3 4.1-8.2 6.5-13.4 6.5z" /></svg>